<svg xmlns="http://www.w3.org/2000/svg" xmlns:xlink="http://www.w3.org/1999/xlink" width="54.642" height="48.189" viewBox="0 0 54.642 48.189"><defs><style>.a{fill:#2095d2;}.b{filter:url(#a);}</style><filter id="a" x="0" y="0" width="54.642" height="48.189" filterUnits="userSpaceOnUse"><feOffset dy="3" input="SourceAlpha"/><feGaussianBlur stdDeviation="3" result="b"/><feFlood flood-opacity="0.161"/><feComposite operator="in" in2="b"/><feComposite in="SourceGraphic"/></filter></defs><g class="b" transform="matrix(1, 0, 0, 1, 0, 0)"><path class="a" d="M36.059,38a14.605,14.605,0,0,1-2.526.844,7.793,7.793,0,0,0,2.079-3.28h0a.412.412,0,0,0-.6-.476h0a14.657,14.657,0,0,1-3.862,1.581.993.993,0,0,1-.241.03,1.029,1.029,0,0,1-.676-.256A7.943,7.943,0,0,0,25,34.491a8.521,8.521,0,0,0-2.5.383,7.611,7.611,0,0,0-5.158,5.462,8.27,8.27,0,0,0-.187,2.881.279.279,0,0,1-.071.22.294.294,0,0,1-.218.1h-.028A20.772,20.772,0,0,1,2.6,36h0a.415.415,0,0,0-.677.052h0a7.776,7.776,0,0,0,1.285,9.511,7.12,7.12,0,0,1-1.8-.691h0a.413.413,0,0,0-.614.353h0a7.829,7.829,0,0,0,4.614,7.218l-.169,0a7.174,7.174,0,0,1-1.331-.126h0a.411.411,0,0,0-.471.527h0a7.9,7.9,0,0,0,6.254,5.334,14.677,14.677,0,0,1-8.164,2.456H.611a.6.6,0,0,0-.591.452.618.618,0,0,0,.3.685,21.842,21.842,0,0,0,10.895,2.91,22.158,22.158,0,0,0,9.31-1.956,20.545,20.545,0,0,0,6.812-5.056,22.126,22.126,0,0,0,4.171-6.92,21.675,21.675,0,0,0,1.418-7.573v-.119a1.327,1.327,0,0,1,.5-1.036A15.52,15.52,0,0,0,36.57,38.6h0a.411.411,0,0,0-.511-.6Z" transform="translate(9 -28.49)"/></g></svg>